<?xml version="1.0" encoding="utf-8"?>
<!-- Generator: Adobe Illustrator 19.2.0, SVG Export Plug-In . SVG Version: 6.00 Build 0)  -->
<svg version="1.1" id="Layer_1" xmlns="http://www.w3.org/2000/svg" xmlns:xlink="http://www.w3.org/1999/xlink" x="0px" y="0px"
	 viewBox="0 0 960 960" style="enable-background:new 0 0 960 960;" xml:space="preserve">
<style type="text/css">
	.st0{fill:#C69C6D;}
	.st1{fill:#F2F2F2;}
	.st2{fill:none;stroke:#CCCCCC;stroke-width:8.0584;stroke-miterlimit:10;}
	.st3{fill:none;stroke:#CCCCCC;stroke-width:4.0292;stroke-linecap:round;stroke-miterlimit:10;stroke-dasharray:12.0876,20.1461;}
	.st4{fill:#FBB03B;}
	.st5{fill:#C1272D;}
	.st6{fill:#4D4D4D;}
	.st7{fill:#C7B299;}
	.st8{fill:#333333;}
	.st9{fill:#F7931E;}
	.st10{fill:#999999;}
</style>
<g>
	<path class="st0" d="M630.4,807.7H191.6c-15.3,0-27.7-12.4-27.7-27.7V233c0-15.3,12.4-27.7,27.7-27.7h438.8
		c15.3,0,27.7,12.4,27.7,27.7v547.1C658.1,795.4,645.7,807.7,630.4,807.7z"/>
	<rect x="192" y="191" class="st1" width="438" height="557"/>
	<rect x="271.4" y="341.3" class="st2" width="286.6" height="286.6"/>
	<line class="st3" x1="409.5" y1="295.2" x2="409.5" y2="675.9"/>
	<line class="st3" x1="611.7" y1="485.6" x2="215.3" y2="485.6"/>
	<g>
		
			<rect x="386.7" y="490" transform="matrix(0.7071 -0.7071 0.7071 0.7071 -189.4562 582.3821)" class="st4" width="443.1" height="59.7"/>
		<path class="st5" d="M787.7,340.4c-11.7-11.7-31-11.2-43.9,1.7l42.2,42.2C798.9,371.4,799.3,352,787.7,340.4z"/>
		
			<rect x="743.6" y="342.2" transform="matrix(0.7071 -0.7071 0.7071 0.7071 -41.6055 643.5959)" class="st6" width="24.9" height="59.7"/>
		<polygon class="st7" points="430.5,655.4 472.6,697.5 402.7,725.3 		"/>
		<polygon class="st8" points="413,699.3 402.7,725.3 428.7,714.9 		"/>
		
			<rect x="390.3" y="518.7" transform="matrix(0.7071 -0.7071 0.7071 0.7071 -198.2009 578.6482)" class="st9" width="418.2" height="19.8"/>
		<polygon class="st4" points="472.6,697.5 457.7,698.4 458.5,683.5 		"/>
		<polygon class="st9" points="458.5,683.5 443.6,684.3 444.5,669.4 		"/>
		<polygon class="st4" points="444.5,669.4 429.6,670.3 430.5,655.4 		"/>
	</g>
	<circle class="st6" cx="227.4" cy="218.7" r="19.9"/>
	<path class="st10" d="M226,223.7L226,223.7c-5.2,0-9.4-4.2-9.4-9.4v-52.7c0-5.2,4.2-9.4,9.4-9.4l0,0c5.2,0,9.4,4.2,9.4,9.4v52.7
		C235.4,219.5,231.2,223.7,226,223.7z"/>
	<circle class="st6" cx="302" cy="218.7" r="19.9"/>
	<path class="st10" d="M300.9,223.7L300.9,223.7c-5.2,0-9.4-4.2-9.4-9.4v-52.7c0-5.2,4.2-9.4,9.4-9.4l0,0c5.2,0,9.4,4.2,9.4,9.4
		v52.7C310.2,219.5,306.1,223.7,300.9,223.7z"/>
	<circle class="st6" cx="376.6" cy="218.7" r="19.9"/>
	<path class="st10" d="M375.8,223.7L375.8,223.7c-5.2,0-9.4-4.2-9.4-9.4v-52.7c0-5.2,4.2-9.4,9.4-9.4l0,0c5.2,0,9.4,4.2,9.4,9.4
		v52.7C385.1,219.5,380.9,223.7,375.8,223.7z"/>
	<circle class="st6" cx="451.2" cy="218.7" r="19.9"/>
	<path class="st10" d="M450.6,223.7L450.6,223.7c-5.2,0-9.4-4.2-9.4-9.4v-52.7c0-5.2,4.2-9.4,9.4-9.4l0,0c5.2,0,9.4,4.2,9.4,9.4
		v52.7C460,219.5,455.8,223.7,450.6,223.7z"/>
	<circle class="st6" cx="525.8" cy="218.7" r="19.9"/>
	<path class="st10" d="M525.5,223.7L525.5,223.7c-5.2,0-9.4-4.2-9.4-9.4v-52.7c0-5.2,4.2-9.4,9.4-9.4l0,0c5.2,0,9.4,4.2,9.4,9.4
		v52.7C534.9,219.5,530.7,223.7,525.5,223.7z"/>
	<circle class="st6" cx="600.4" cy="218.7" r="19.9"/>
	<path class="st10" d="M600.4,223.7L600.4,223.7c-5.2,0-9.4-4.2-9.4-9.4v-52.7c0-5.2,4.2-9.4,9.4-9.4l0,0c5.2,0,9.4,4.2,9.4,9.4
		v52.7C609.7,219.5,605.5,223.7,600.4,223.7z"/>
</g>
</svg>
